<svg xmlns="http://www.w3.org/2000/svg" width="50.0mm" height="50.0mm" viewBox="0 0 50.0 50.0">
<rect x="0" y="0" width="50.0" height="50.0" fill="white"/>
<rect x="5.000000" y="5.000000" width="40.000000" height="40.000000" fill="none" stroke="black" stroke-width="0.15"/>
<rect x="8.000000" y="8.000000" width="5.666667" height="5.666667" fill="black"/>
<rect x="13.666667" y="8.000000" width="5.666667" height="5.666667" fill="black"/>
<rect x="19.333333" y="8.000000" width="5.666667" height="5.666667" fill="black"/>
<rect x="25.000000" y="8.000000" width="5.666667" height="5.666667" fill="black"/>
<rect x="30.666667" y="8.000000" width="5.666667" height="5.666667" fill="black"/>
<rect x="36.333333" y="8.000000" width="5.666667" height="5.666667" fill="black"/>
<rect x="8.000000" y="13.666667" width="5.666667" height="5.666667" fill="black"/>
<rect x="25.000000" y="13.666667" width="5.666667" height="5.666667" fill="black"/>
<rect x="36.333333" y="13.666667" width="5.666667" height="5.666667" fill="black"/>
<rect x="8.000000" y="19.333333" width="5.666667" height="5.666667" fill="black"/>
<rect x="19.333333" y="19.333333" width="5.666667" height="5.666667" fill="black"/>
<rect x="25.000000" y="19.333333" width="5.666667" height="5.666667" fill="black"/>
<rect x="30.666667" y="19.333333" width="5.666667" height="5.666667" fill="black"/>
<rect x="36.333333" y="19.333333" width="5.666667" height="5.666667" fill="black"/>
<rect x="8.000000" y="25.000000" width="5.666667" height="5.666667" fill="black"/>
<rect x="25.000000" y="25.000000" width="5.666667" height="5.666667" fill="black"/>
<rect x="30.666667" y="25.000000" width="5.666667" height="5.666667" fill="black"/>
<rect x="36.333333" y="25.000000" width="5.666667" height="5.666667" fill="black"/>
<rect x="8.000000" y="30.666667" width="5.666667" height="5.666667" fill="black"/>
<rect x="13.666667" y="30.666667" width="5.666667" height="5.666667" fill="black"/>
<rect x="25.000000" y="30.666667" width="5.666667" height="5.666667" fill="black"/>
<rect x="30.666667" y="30.666667" width="5.666667" height="5.666667" fill="black"/>
<rect x="36.333333" y="30.666667" width="5.666667" height="5.666667" fill="black"/>
<rect x="8.000000" y="36.333333" width="5.666667" height="5.666667" fill="black"/>
<rect x="13.666667" y="36.333333" width="5.666667" height="5.666667" fill="black"/>
<rect x="19.333333" y="36.333333" width="5.666667" height="5.666667" fill="black"/>
<rect x="25.000000" y="36.333333" width="5.666667" height="5.666667" fill="black"/>
<rect x="30.666667" y="36.333333" width="5.666667" height="5.666667" fill="black"/>
<rect x="36.333333" y="36.333333" width="5.666667" height="5.666667" fill="black"/>
</svg>
